<svg xmlns="http://www.w3.org/2000/svg" version="1.1" xmlns:xlink="http://www.w3.org/1999/xlink" xmlns:svgjs="http://svgjs.dev/svgjs" width="1000" height="520" viewBox="0 0 1000 520"><g transform="matrix(1,0,0,1,-0.6060606060606233,-0.42069592945188106)"><svg viewBox="0 0 396 206" data-background-color="#f8f8f8" preserveAspectRatio="xMidYMid meet" height="520" width="1000" xmlns="http://www.w3.org/2000/svg" xmlns:xlink="http://www.w3.org/1999/xlink"><g id="tight-bounds" transform="matrix(1,0,0,1,0.2400000000000091,0.1666608922298849)"><svg viewBox="0 0 395.52 205.66667853893767" height="205.66667853893767" width="395.52"><g><svg viewBox="0 0 395.52 205.66667853893767" height="205.66667853893767" width="395.52"><g transform="matrix(1,0,0,1,0,132.95521472683455)"><svg viewBox="0 0 395.52 72.71146381210312" height="72.71146381210312" width="395.52"><g><svg viewBox="0 0 395.52 72.71146381210312" height="72.71146381210312" width="395.52"><g><svg viewBox="0 0 395.52 51.60198298999312" height="51.60198298999312" width="395.52"><g transform="matrix(1,0,0,1,0,0)"><svg width="395.52" viewBox="1.2459614276885986 -31.1014404296875 332.7872314453125 43.41748809814453" height="51.60198298999312" data-palette-color="#61777f"><path d="M33.869-14.24c0.229 2.02-0.109 3.914-1.015 5.681-0.907 1.76-2.36 3.143-4.36 4.148v0l8.949 13.043-11.953 1.358-7.255-11.424-3.945 0.448 1.373 12.092-10.651 1.21-3.766-33.157 20.29-2.304c2.371-0.269 4.454-0.04 6.247 0.689 1.793 0.722 3.202 1.814 4.227 3.274 1.031 1.46 1.651 3.107 1.859 4.942zM23.078-12.582c-0.099-0.868-0.472-1.557-1.121-2.067-0.642-0.511-1.38-0.719-2.214-0.624v0l-6.986 0.794 0.696 6.12 6.985-0.793c0.835-0.095 1.506-0.473 2.015-1.135 0.515-0.662 0.724-1.427 0.624-2.295zM54.98-26.889c5.739-0.488 10.295 0.603 13.666 3.273 3.371 2.664 5.295 6.799 5.773 12.406v0c0.477 5.606-0.721 10.007-3.594 13.202-2.873 3.195-7.179 5.037-12.918 5.525v0c-5.733 0.488-10.277-0.594-13.634-3.246-3.357-2.652-5.275-6.794-5.754-12.427v0c-0.48-5.64 0.711-10.05 3.571-13.23 2.861-3.181 7.157-5.015 12.89-5.503zM55.658-18.917c-2.285 0.194-3.963 1.036-5.034 2.525-1.078 1.49-1.516 3.411-1.316 5.763v0l0.263 3.089c0.2 2.352 0.957 4.167 2.27 5.447 1.307 1.287 3.103 1.833 5.388 1.639v0c2.292-0.195 3.983-1.038 5.074-2.529 1.085-1.484 1.527-3.402 1.327-5.754v0l-0.263-3.089c-0.2-2.352-0.96-4.17-2.281-5.456-1.327-1.285-3.136-1.831-5.428-1.635zM113.237 3.331l-11.322 0.637-1.672-4.613-11.671 0.658-1.134 4.771-10.952 0.617 10.283-34.002 12.44-0.701zM93.244-19.631l-2.866 12.06 7.218-0.407-4.152-11.664zM130.361-30.571c11.668-0.356 17.671 5.027 18.01 16.148v0c0.339 11.115-5.326 16.85-16.993 17.206v0l-14.444 0.44-1.017-33.354zM126.877-22.451l0.529 17.351 3.538-0.107c4.491-0.137 6.663-2.614 6.516-7.432v0l-0.088-2.909c-0.147-4.811-2.466-7.148-6.957-7.011v0zM193.539 2.269l-10.62 0 0.001-12.03c0-1.487 0.057-3.013 0.17-4.58 0.113-1.567 0.233-2.883 0.36-3.95 0.133-1.067 0.217-1.747 0.25-2.04v0l-0.2 0-6.161 22.6-8.39 0-6.199-22.55-0.2 0c0.033 0.293 0.123 0.963 0.27 2.01 0.147 1.053 0.283 2.363 0.41 3.93 0.127 1.567 0.19 3.093 0.19 4.58v0l-0.001 12.03-9.84 0 0.001-33.37 15.13 0 5.04 19.26 0.2 0 4.99-19.26 14.6 0zM233.304 3.565l-11.334-0.366-1.257-4.743-11.684-0.378-1.551 4.652-10.964-0.354 13.252-32.959 12.453 0.402zM215.421-21.076l-3.922 11.76 7.227 0.233-3.105-11.986zM265.133-19.481l-10.893-0.609-1.387 24.791-10.694-0.599 1.388-24.791-10.943-0.612 0.477-8.527 32.529 1.821zM268.322 5.682l2.676-33.263 28.757 2.313-0.642 7.984-18.072-1.453-0.369 4.585 15.47 1.244-0.615 7.645-15.47-1.244-0.408 5.074 18.411 1.481-0.642 7.974zM320.415-23.642c4.249 0.455 7.647 1.69 10.193 3.706 2.547 2.009 3.674 4.704 3.379 8.085v0l-0.062 0.587-9.983-1.068 0.021-0.199c0.103-0.961-0.166-1.801-0.807-2.52-0.64-0.719-1.683-1.156-3.128-1.31v0c-1.412-0.151-2.518-0.058-3.318 0.278-0.8 0.337-1.233 0.81-1.299 1.42v0c-0.093 0.868 0.352 1.566 1.335 2.094 0.983 0.528 2.594 1.139 4.832 1.834v0c2.607 0.829 4.74 1.633 6.4 2.415 1.653 0.78 3.051 1.912 4.192 3.395 1.141 1.49 1.605 3.393 1.391 5.71v0c-0.42 3.924-2.057 6.692-4.911 8.305-2.854 1.612-6.502 2.181-10.944 1.706v0c-5.17-0.553-9.101-1.852-11.792-3.897-2.691-2.045-3.801-5.268-3.331-9.669v0l10.073 1.078c-0.179 1.67 0.136 2.834 0.944 3.49 0.808 0.656 2.127 1.082 3.956 1.278v0c1.352 0.145 2.485 0.118 3.398-0.079 0.919-0.19 1.426-0.736 1.523-1.637v0c0.086-0.802-0.34-1.458-1.278-1.967-0.938-0.509-2.493-1.108-4.666-1.797v0c-2.636-0.865-4.806-1.704-6.509-2.517-1.696-0.818-3.126-2.021-4.29-3.606-1.165-1.586-1.614-3.619-1.349-6.099v0c0.389-3.633 2.08-6.157 5.074-7.573 3.002-1.422 6.654-1.903 10.956-1.443z" opacity="1" transform="matrix(1,0,0,1,0,0)" fill="#61777f" class="undefined-text-0" data-fill-palette-color="primary" id="text-0"></path></svg></g></svg></g><g transform="matrix(1,0,0,1,118.31980799999998,55.83306819697258)"><svg viewBox="0 0 158.88038400000002 16.878395615130533" height="16.878395615130533" width="158.88038400000002"><g transform="matrix(1,0,0,1,0,0)"><svg width="158.88038400000002" viewBox="5 -39.04999923706055 469.2099914550781 49.849998474121094" height="16.878395615130533" data-palette-color="#000000"><path d="M6.95 0L6.95 0Q6.1 0 5.55-0.55 5-1.1 5-1.95L5-1.95 5-37.1Q5-37.95 5.55-38.5 6.1-39.05 6.95-39.05L6.95-39.05 16.95-39.05Q20.65-39.05 23.5-37.43 26.35-35.8 27.95-32.95 29.55-30.1 29.55-26.35L29.55-26.35Q29.55-22.7 27.95-19.88 26.35-17.05 23.5-15.43 20.65-13.8 16.95-13.8L16.95-13.8 8.9-13.8 8.9-1.95Q8.9-1.1 8.35-0.55 7.8 0 6.95 0ZM8.9-35.3L8.9-17.55 16.95-17.55Q19.5-17.55 21.5-18.68 23.5-19.8 24.63-21.8 25.75-23.8 25.75-26.35L25.75-26.35Q25.75-29 24.63-31 23.5-33 21.5-34.15 19.5-35.3 16.95-35.3L16.95-35.3 8.9-35.3ZM46.15 0.25L46.15 0.25Q42.3 0.25 39.25-1.58 36.2-3.4 34.42-6.55 32.65-9.7 32.65-13.65L32.65-13.65Q32.65-17.65 34.47-20.8 36.3-23.95 39.45-25.78 42.6-27.6 46.55-27.6L46.55-27.6Q50.5-27.6 53.62-25.78 56.75-23.95 58.57-20.8 60.4-17.65 60.45-13.65L60.45-13.65 58.9-12.45Q58.9-8.85 57.22-5.98 55.55-3.1 52.67-1.43 49.8 0.25 46.15 0.25ZM46.55-3.25L46.55-3.25Q49.45-3.25 51.72-4.6 54-5.95 55.32-8.33 56.65-10.7 56.65-13.65L56.65-13.65Q56.65-16.65 55.32-19 54-21.35 51.72-22.73 49.45-24.1 46.55-24.1L46.55-24.1Q43.7-24.1 41.4-22.73 39.1-21.35 37.75-19 36.4-16.65 36.4-13.65L36.4-13.65Q36.4-10.7 37.75-8.33 39.1-5.95 41.4-4.6 43.7-3.25 46.55-3.25ZM58.5 0L58.5 0Q57.65 0 57.1-0.53 56.55-1.05 56.55-1.9L56.55-1.9 56.55-10.45 57.5-14.4 60.45-13.65 60.45-1.9Q60.45-1.05 59.9-0.53 59.35 0 58.5 0ZM71.75-16.85L69.55-16.85Q69.7-19.95 71.17-22.4 72.65-24.85 75.02-26.25 77.4-27.65 80.3-27.65L80.3-27.65Q82.6-27.65 83.85-27 85.1-26.35 84.8-25.1L84.8-25.1Q84.6-24.35 84.12-24.1 83.65-23.85 82.97-23.9 82.3-23.95 81.45-24L81.45-24Q78.65-24.25 76.47-23.43 74.3-22.6 73.02-20.9 71.75-19.2 71.75-16.85L71.75-16.85ZM69.85 0L69.85 0Q68.95 0 68.45-0.5 67.95-1 67.95-1.9L67.95-1.9 67.95-25.45Q67.95-26.35 68.45-26.85 68.95-27.35 69.85-27.35L69.85-27.35Q70.75-27.35 71.25-26.85 71.75-26.35 71.75-25.45L71.75-25.45 71.75-1.9Q71.75-1 71.25-0.5 70.75 0 69.85 0ZM102.59 0L101.54 0Q98.89 0 96.82-1.25 94.74-2.5 93.54-4.67 92.34-6.85 92.34-9.65L92.34-9.65 92.34-34.1Q92.34-34.95 92.87-35.5 93.39-36.05 94.24-36.05L94.24-36.05Q95.09-36.05 95.64-35.5 96.19-34.95 96.19-34.1L96.19-34.1 96.19-9.65Q96.19-7.1 97.69-5.48 99.19-3.85 101.54-3.85L101.54-3.85 102.89-3.85Q103.69-3.85 104.19-3.3 104.69-2.75 104.69-1.9L104.69-1.9Q104.69-1.05 104.09-0.53 103.49 0 102.59 0L102.59 0ZM101.84-23L89.09-23Q88.34-23 87.84-23.48 87.34-23.95 87.34-24.65L87.34-24.65Q87.34-25.4 87.84-25.88 88.34-26.35 89.09-26.35L89.09-26.35 101.84-26.35Q102.59-26.35 103.09-25.88 103.59-25.4 103.59-24.65L103.59-24.65Q103.59-23.95 103.09-23.48 102.59-23 101.84-23L101.84-23ZM122.99 0.25L122.99 0.25Q119.14 0.25 116.09-1.58 113.04-3.4 111.27-6.55 109.49-9.7 109.49-13.65L109.49-13.65Q109.49-17.65 111.32-20.8 113.14-23.95 116.29-25.78 119.44-27.6 123.39-27.6L123.39-27.6Q127.34-27.6 130.47-25.78 133.59-23.95 135.42-20.8 137.24-17.65 137.29-13.65L137.29-13.65 135.74-12.45Q135.74-8.85 134.07-5.98 132.39-3.1 129.52-1.43 126.64 0.25 122.99 0.25ZM123.39-3.25L123.39-3.25Q126.29-3.25 128.57-4.6 130.84-5.95 132.17-8.33 133.49-10.7 133.49-13.65L133.49-13.65Q133.49-16.65 132.17-19 130.84-21.35 128.57-22.73 126.29-24.1 123.39-24.1L123.39-24.1Q120.54-24.1 118.24-22.73 115.94-21.35 114.59-19 113.24-16.65 113.24-13.65L113.24-13.65Q113.24-10.7 114.59-8.33 115.94-5.95 118.24-4.6 120.54-3.25 123.39-3.25ZM135.34 0L135.34 0Q134.49 0 133.94-0.53 133.39-1.05 133.39-1.9L133.39-1.9 133.39-10.45 134.34-14.4 137.29-13.65 137.29-1.9Q137.29-1.05 136.74-0.53 136.19 0 135.34 0ZM156.84 0.25L156.84 0.25Q152.89 0.25 149.84-1.53 146.79-3.3 145.06-6.45 143.34-9.6 143.34-13.65L143.34-13.65Q143.34-17.75 145.14-20.9 146.94-24.05 150.09-25.83 153.24-27.6 157.24-27.6L157.24-27.6Q161.29-27.6 164.41-25.83 167.54-24.05 169.31-20.9 171.09-17.75 171.14-13.65L171.14-13.65 168.89-12.45Q168.89-8.75 167.34-5.88 165.79-3 163.06-1.38 160.34 0.25 156.84 0.25ZM157.34 10.8L157.34 10.8Q153.39 10.8 150.39 9.33 147.39 7.85 145.44 5.3L145.44 5.3Q144.89 4.7 144.96 4 145.04 3.3 145.69 2.85L145.69 2.85Q146.34 2.4 147.14 2.55 147.94 2.7 148.39 3.3L148.39 3.3Q149.84 5.1 152.11 6.2 154.39 7.3 157.39 7.3L157.39 7.3Q160.19 7.3 162.44 5.95 164.69 4.6 166.01 2.15 167.34-0.3 167.34-3.6L167.34-3.6 167.34-11.2 168.79-14.1 171.14-13.65 171.14-3.45Q171.14 0.6 169.34 3.83 167.54 7.05 164.44 8.93 161.34 10.8 157.34 10.8ZM157.24-3.25L157.24-3.25Q160.19-3.25 162.46-4.58 164.74-5.9 166.04-8.25 167.34-10.6 167.34-13.65L167.34-13.65Q167.34-16.7 166.04-19.07 164.74-21.45 162.46-22.78 160.19-24.1 157.24-24.1L157.24-24.1Q154.29-24.1 151.99-22.78 149.69-21.45 148.39-19.07 147.09-16.7 147.09-13.65L147.09-13.65Q147.09-10.6 148.39-8.25 149.69-5.9 151.99-4.58 154.29-3.25 157.24-3.25ZM191.04 0.25L191.04 0.25Q186.99 0.25 183.86-1.53 180.74-3.3 178.96-6.45 177.19-9.6 177.19-13.65L177.19-13.65Q177.19-17.75 178.86-20.88 180.54-24 183.49-25.8 186.44-27.6 190.29-27.6L190.29-27.6Q194.09-27.6 196.91-25.88 199.74-24.15 201.29-21.1 202.84-18.05 202.84-14.15L202.84-14.15Q202.84-13.35 202.34-12.88 201.84-12.4 201.04-12.4L201.04-12.4 179.79-12.4 179.79-15.6 201.44-15.6 199.29-14.05Q199.34-16.95 198.24-19.25 197.14-21.55 195.11-22.85 193.09-24.15 190.29-24.15L190.29-24.15Q187.44-24.15 185.29-22.8 183.14-21.45 181.96-19.07 180.79-16.7 180.79-13.65L180.79-13.65Q180.79-10.6 182.11-8.25 183.44-5.9 185.74-4.55 188.04-3.2 191.04-3.2L191.04-3.2Q192.84-3.2 194.66-3.83 196.49-4.45 197.59-5.4L197.59-5.4Q198.14-5.85 198.84-5.88 199.54-5.9 200.04-5.5L200.04-5.5Q200.69-4.9 200.71-4.2 200.74-3.5 200.14-3L200.14-3Q198.49-1.6 195.94-0.68 193.39 0.25 191.04 0.25ZM229.63-24.45L211.58-1.3 208.43-3 227.03-26.65 229.63-24.45ZM228.38 0L209.83 0Q208.08 0 208.08-1.75L208.08-1.75Q208.08-3.5 209.83-3.5L209.83-3.5 228.38-3.5Q230.13-3.5 230.13-1.75L230.13-1.75Q230.13 0 228.38 0L228.38 0ZM228.18-23.85L209.63-23.85Q207.88-23.85 207.88-25.6L207.88-25.6Q207.88-27.35 209.63-27.35L209.63-27.35 228.18-27.35Q229.93-27.35 229.93-25.6L229.93-25.6Q229.93-23.85 228.18-23.85L228.18-23.85ZM257.98 0L257.33 0Q255.33 0 253.75-1.1 252.18-2.2 251.3-4.15 250.43-6.1 250.43-8.65L250.43-8.65 250.43-37.15Q250.43-38 250.95-38.53 251.48-39.05 252.33-39.05L252.33-39.05Q253.18-39.05 253.7-38.53 254.23-38 254.23-37.15L254.23-37.15 254.23-8.65Q254.23-6.5 255.1-5.15 255.98-3.8 257.33-3.8L257.33-3.8 258.58-3.8Q259.33-3.8 259.78-3.28 260.23-2.75 260.23-1.9L260.23-1.9Q260.23-1.05 259.6-0.53 258.98 0 257.98 0L257.98 0ZM276.43 0.25L276.43 0.25Q272.38 0.25 269.25-1.53 266.13-3.3 264.35-6.45 262.58-9.6 262.58-13.65L262.58-13.65Q262.58-17.75 264.25-20.88 265.93-24 268.88-25.8 271.83-27.6 275.68-27.6L275.68-27.6Q279.48-27.6 282.3-25.88 285.13-24.15 286.68-21.1 288.23-18.05 288.23-14.15L288.23-14.15Q288.23-13.35 287.73-12.88 287.23-12.4 286.43-12.4L286.43-12.4 265.18-12.4 265.18-15.6 286.83-15.6 284.68-14.05Q284.73-16.95 283.63-19.25 282.53-21.55 280.5-22.85 278.48-24.15 275.68-24.15L275.68-24.15Q272.83-24.15 270.68-22.8 268.53-21.45 267.35-19.07 266.18-16.7 266.18-13.65L266.18-13.65Q266.18-10.6 267.5-8.25 268.83-5.9 271.13-4.55 273.43-3.2 276.43-3.2L276.43-3.2Q278.23-3.2 280.05-3.83 281.88-4.45 282.98-5.4L282.98-5.4Q283.53-5.85 284.23-5.88 284.93-5.9 285.43-5.5L285.43-5.5Q286.08-4.9 286.1-4.2 286.13-3.5 285.53-3L285.53-3Q283.88-1.6 281.33-0.68 278.78 0.25 276.43 0.25ZM304.27 0.25L304.27 0.25Q301.32 0.25 298.42-0.75 295.52-1.75 293.72-3.75L293.72-3.75Q293.17-4.35 293.27-5.1 293.37-5.85 294.02-6.4L294.02-6.4Q294.72-6.9 295.47-6.8 296.22-6.7 296.72-6.15L296.72-6.15Q297.92-4.75 299.9-4 301.87-3.25 304.27-3.25L304.27-3.25Q307.97-3.25 309.62-4.53 311.27-5.8 311.32-7.6L311.32-7.6Q311.32-9.4 309.62-10.58 307.92-11.75 304.02-12.4L304.02-12.4Q298.97-13.2 296.62-15.2 294.27-17.2 294.27-19.95L294.27-19.95Q294.27-22.5 295.62-24.2 296.97-25.9 299.22-26.75 301.47-27.6 304.17-27.6L304.17-27.6Q307.52-27.6 309.95-26.45 312.37-25.3 313.87-23.35L313.87-23.35Q314.37-22.7 314.27-22 314.17-21.3 313.47-20.85L313.47-20.85Q312.87-20.5 312.1-20.63 311.32-20.75 310.77-21.35L310.77-21.35Q309.52-22.8 307.87-23.48 306.22-24.15 304.07-24.15L304.07-24.15Q301.32-24.15 299.67-23.03 298.02-21.9 298.02-20.2L298.02-20.2Q298.02-19.05 298.65-18.2 299.27-17.35 300.8-16.7 302.32-16.05 305.07-15.6L305.07-15.6Q308.82-15 311-13.83 313.17-12.65 314.1-11.08 315.02-9.5 315.02-7.65L315.02-7.65Q315.02-5.3 313.65-3.53 312.27-1.75 309.85-0.75 307.42 0.25 304.27 0.25ZM348.52 0.25L348.52 0.25Q344.57 0.25 341.49-1.58 338.42-3.4 336.64-6.55 334.87-9.7 334.87-13.65L334.87-13.65Q334.87-17.65 336.57-20.8 338.27-23.95 341.22-25.78 344.17-27.6 348.02-27.6L348.02-27.6Q351.07-27.6 353.64-26.4 356.22-25.2 358.17-22.8L358.17-22.8Q358.72-22.2 358.57-21.53 358.42-20.85 357.72-20.35L357.72-20.35Q357.17-19.95 356.49-20.08 355.82-20.2 355.32-20.8L355.32-20.8Q352.42-24.1 348.02-24.1L348.02-24.1Q345.22-24.1 343.09-22.75 340.97-21.4 339.79-19.05 338.62-16.7 338.62-13.65L338.62-13.65Q338.62-10.65 339.87-8.3 341.12-5.95 343.37-4.6 345.62-3.25 348.52-3.25L348.52-3.25Q350.47-3.25 352.09-3.78 353.72-4.3 354.97-5.4L354.97-5.4Q355.57-5.9 356.22-5.95 356.87-6 357.42-5.55L357.42-5.55Q358.02-5 358.09-4.3 358.17-3.6 357.62-3.1L357.62-3.1Q353.97 0.25 348.52 0.25ZM378.56 0.25L378.56 0.25Q374.56 0.25 371.42-1.55 368.26-3.35 366.47-6.5 364.67-9.65 364.67-13.65L364.67-13.65Q364.67-17.7 366.47-20.85 368.26-24 371.42-25.8 374.56-27.6 378.56-27.6L378.56-27.6Q382.56-27.6 385.69-25.8 388.81-24 390.62-20.85 392.42-17.7 392.47-13.65L392.47-13.65Q392.47-9.65 390.64-6.5 388.81-3.35 385.69-1.55 382.56 0.25 378.56 0.25ZM378.56-3.25L378.56-3.25Q381.47-3.25 383.76-4.6 386.06-5.95 387.37-8.3 388.67-10.65 388.67-13.65L388.67-13.65Q388.67-16.65 387.37-19.03 386.06-21.4 383.76-22.75 381.47-24.1 378.56-24.1L378.56-24.1Q375.67-24.1 373.37-22.75 371.06-21.4 369.74-19.03 368.42-16.65 368.42-13.65L368.42-13.65Q368.42-10.65 369.74-8.3 371.06-5.95 373.37-4.6 375.67-3.25 378.56-3.25ZM411.86 0.3L411.86 0.3Q408.31 0.3 405.51-1.18 402.71-2.65 401.09-5.5 399.46-8.35 399.46-12.45L399.46-12.45 399.46-25.45Q399.46-26.25 400.01-26.8 400.56-27.35 401.36-27.35L401.36-27.35Q402.21-27.35 402.76-26.8 403.31-26.25 403.31-25.45L403.31-25.45 403.31-12.45Q403.31-9.35 404.49-7.35 405.66-5.35 407.69-4.35 409.71-3.35 412.26-3.35L412.26-3.35Q414.71-3.35 416.69-4.3 418.66-5.25 419.81-6.9 420.96-8.55 420.96-10.65L420.96-10.65 423.71-10.65Q423.56-7.5 421.99-5.03 420.41-2.55 417.76-1.13 415.11 0.3 411.86 0.3ZM422.86 0L422.86 0Q422.01 0 421.49-0.53 420.96-1.05 420.96-1.95L420.96-1.95 420.96-25.45Q420.96-26.3 421.49-26.83 422.01-27.35 422.86-27.35L422.86-27.35Q423.71-27.35 424.26-26.83 424.81-26.3 424.81-25.45L424.81-25.45 424.81-1.95Q424.81-1.05 424.26-0.53 423.71 0 422.86 0ZM445.56 0L444.51 0Q441.86 0 439.79-1.25 437.71-2.5 436.51-4.67 435.31-6.85 435.31-9.65L435.31-9.65 435.31-34.1Q435.31-34.95 435.84-35.5 436.36-36.05 437.21-36.05L437.21-36.05Q438.06-36.05 438.61-35.5 439.16-34.95 439.16-34.1L439.16-34.1 439.16-9.65Q439.16-7.1 440.66-5.48 442.16-3.85 444.51-3.85L444.51-3.85 445.86-3.85Q446.66-3.85 447.16-3.3 447.66-2.75 447.66-1.9L447.66-1.9Q447.66-1.05 447.06-0.53 446.46 0 445.56 0L445.56 0ZM444.81-23L432.06-23Q431.31-23 430.81-23.48 430.31-23.95 430.31-24.65L430.31-24.65Q430.31-25.4 430.81-25.88 431.31-26.35 432.06-26.35L432.06-26.35 444.81-26.35Q445.56-26.35 446.06-25.88 446.56-25.4 446.56-24.65L446.56-24.65Q446.56-23.95 446.06-23.48 445.56-23 444.81-23L444.81-23ZM463.46 0.25L463.46 0.25Q460.51 0.25 457.61-0.75 454.71-1.75 452.91-3.75L452.91-3.75Q452.36-4.35 452.46-5.1 452.56-5.85 453.21-6.4L453.21-6.4Q453.91-6.9 454.66-6.8 455.41-6.7 455.91-6.15L455.91-6.15Q457.11-4.75 459.08-4 461.06-3.25 463.46-3.25L463.46-3.25Q467.16-3.25 468.81-4.53 470.46-5.8 470.51-7.6L470.51-7.6Q470.51-9.4 468.81-10.58 467.11-11.75 463.21-12.4L463.21-12.4Q458.16-13.2 455.81-15.2 453.46-17.2 453.46-19.95L453.46-19.95Q453.46-22.5 454.81-24.2 456.16-25.9 458.41-26.75 460.66-27.6 463.36-27.6L463.36-27.6Q466.71-27.6 469.13-26.45 471.56-25.3 473.06-23.35L473.06-23.35Q473.56-22.7 473.46-22 473.36-21.3 472.66-20.85L472.66-20.85Q472.06-20.5 471.28-20.63 470.51-20.75 469.96-21.35L469.96-21.35Q468.71-22.8 467.06-23.48 465.41-24.15 463.26-24.15L463.26-24.15Q460.51-24.15 458.86-23.03 457.21-21.9 457.21-20.2L457.21-20.2Q457.21-19.05 457.83-18.2 458.46-17.35 459.98-16.7 461.51-16.05 464.26-15.6L464.26-15.6Q468.01-15 470.18-13.83 472.36-12.65 473.28-11.08 474.21-9.5 474.21-7.65L474.21-7.65Q474.21-5.3 472.83-3.53 471.46-1.75 469.03-0.75 466.61 0.25 463.46 0.25Z" opacity="1" transform="matrix(1,0,0,1,0,0)" fill="#000000" class="undefined-text-1" data-fill-palette-color="secondary" id="text-1"></path></svg></g></svg></g></svg></g></svg></g><g transform="matrix(1,0,0,1,135.77544836647968,0)"><svg viewBox="0 0 123.96910326704062 117.64714844798286" height="117.64714844798286" width="123.96910326704062"><g><svg xmlns="http://www.w3.org/2000/svg" xmlns:xlink="http://www.w3.org/1999/xlink" version="1.1" x="0" y="0" viewBox="8.13184642791748 10.267011642456055 83.73612976074219 79.46590423583984" enable-background="new 0 0 100 100" xml:space="preserve" height="117.64714844798286" width="123.96910326704062" class="icon-icon-0" data-fill-palette-color="accent" id="icon-0"><path d="M84.152 11.001c-5.7-2.106-11.986 0.472-14.641 5.788L51.857 22.02c-0.75-0.498-1.56-0.927-2.439-1.252-6.113-2.258-12.901 0.868-15.16 6.981-2.227 6.027 0.785 12.699 6.726 15.052l5.5 17.864c-0.239 0.433-0.456 0.883-0.644 1.354l-19.675 5.883c-0.664-0.409-1.377-0.762-2.138-1.043-6.114-2.258-12.901 0.867-15.161 6.98C6.608 79.953 9.733 86.741 15.848 89c5.944 2.195 12.514-0.706 14.95-6.489l19.988-5.979c0.603 0.354 1.237 0.671 1.917 0.922 6.113 2.259 12.9-0.867 15.16-6.98 2.259-6.113-0.866-12.902-6.98-15.16-0.005-0.002-0.011-0.004-0.016-0.006l-5.383-17.474c0.203-0.344 0.39-0.702 0.559-1.071l17.17-5.089c0.835 0.595 1.752 1.101 2.76 1.473 6.112 2.258 12.902-0.868 15.16-6.981C93.393 20.048 90.266 13.259 84.152 11.001zM86.441 24.431c-0.983 2.66-3.549 4.448-6.383 4.448-0.8 0-1.592-0.143-2.354-0.425-1.331-0.492-2.445-1.369-3.233-2.515-0.177 0.132-0.375 0.254-0.629 0.331L53.07 32.427c-0.217 0.066-0.438 0.1-0.657 0.1-0.108 0-0.218-0.011-0.322-0.027-0.056 0.568-0.175 1.137-0.382 1.696-0.406 1.098-1.091 2.036-1.943 2.772 0.214 0.239 0.384 0.522 0.482 0.842l6.463 20.987c0.088 0.287 0.098 0.544 0.082 0.781 0.002 0 0.003 0 0.005 0 0.8 0 1.591 0.145 2.354 0.425 1.703 0.629 3.06 1.886 3.82 3.535 0.76 1.649 0.832 3.498 0.201 5.202-0.982 2.66-3.548 4.447-6.382 4.447-0.799 0-1.592-0.143-2.354-0.424-1.092-0.404-2.039-1.066-2.779-1.924-0.227 0.2-0.493 0.357-0.795 0.45l-23.266 6.962c-0.217 0.066-0.437 0.1-0.657 0.1-0.071 0-0.141-0.011-0.211-0.018-0.039 0.652-0.17 1.309-0.408 1.953-0.984 2.66-3.549 4.447-6.383 4.447-0.8 0-1.592-0.143-2.355-0.424-3.519-1.3-5.324-5.22-4.024-8.737 0.983-2.661 3.548-4.448 6.383-4.448 0.799 0 1.591 0.143 2.354 0.425 1.181 0.437 2.163 1.173 2.905 2.084 0.229-0.207 0.5-0.37 0.81-0.466l23.268-6.959c0.216-0.066 0.438-0.1 0.658-0.1 0.022 0 0.042 0.005 0.064 0.005 0.029-0.704 0.164-1.408 0.415-2.089 0.389-1.055 1.033-1.963 1.838-2.688-0.289-0.266-0.518-0.604-0.637-0.998l-6.46-20.984c-0.075-0.245-0.096-0.492-0.087-0.735-0.712-0.027-1.417-0.151-2.098-0.402-1.703-0.629-3.06-1.885-3.82-3.535-0.76-1.65-0.831-3.497-0.202-5.202 0.983-2.66 3.548-4.448 6.383-4.448 0.8 0 1.591 0.143 2.354 0.424 1.27 0.469 2.312 1.282 3.07 2.292 0.192-0.16 0.419-0.31 0.718-0.401l20.776-6.157c0.216-0.066 0.437-0.1 0.655-0.1 0.144 0 0.283 0.018 0.421 0.045 0.067-0.48 0.182-0.957 0.354-1.422 0.982-2.66 3.547-4.448 6.385-4.448 0.799 0 1.592 0.142 2.354 0.424C85.938 16.991 87.742 20.911 86.441 24.431z" fill="#c8c8c8" data-fill-palette-color="accent"></path></svg></g></svg></g><g></g></svg></g><defs></defs></svg><rect width="395.52" height="205.66667853893767" fill="none" stroke="none" visibility="hidden"></rect></g></svg></g></svg>